<?xml version="1.0" standalone="no"?>
<!DOCTYPE svg PUBLIC "-//W3C//DTD SVG 20010904//EN"
 "http://www.w3.org/TR/2001/REC-SVG-20010904/DTD/svg10.dtd">
<svg version="1.0" xmlns="http://www.w3.org/2000/svg"
 width="514.000000pt" height="514.000000pt" viewBox="0 0 514.000000 514.000000"
 preserveAspectRatio="xMidYMid meet">
<metadata>
Created by potrace 1.11, written by Peter Selinger 2001-2013
</metadata>
<g transform="translate(0.000000,514.000000) scale(0.100000,-0.100000)"
fill="#000000" stroke="none">
<path d="M3047 4624 c-1 -1 -47 -5 -102 -8 -55 -4 -136 -10 -180 -15 -44 -5
-236 -8 -428 -6 -191 1 -349 -1 -352 -5 -6 -10 -10 -118 -5 -124 3 -2 41 -7
85 -10 87 -6 100 -8 160 -25 61 -16 100 -45 121 -87 18 -38 19 -75 19 -1219 0
-649 -3 -1203 -7 -1231 -18 -142 -91 -190 -333 -217 -29 -3 -30 -6 -33 -57 -2
-29 1 -57 7 -63 9 -9 1216 -15 1226 -5 6 6 9 117 3 123 -2 2 -48 7 -101 10
-162 9 -248 28 -308 68 -61 41 -62 49 -63 582 -1 474 -1 480 19 479 27 -2 108
-15 115 -19 11 -7 170 -18 255 -18 384 0 765 176 942 437 15 22 31 43 34 46 3
3 24 43 47 90 65 135 86 240 85 412 -2 147 -25 259 -76 367 -151 322 -498 485
-1051 495 -43 0 -78 0 -79 0z m123 -198 c138 -8 291 -55 367 -112 17 -13 34
-24 37 -24 16 0 117 -117 144 -167 108 -203 113 -544 12 -760 -96 -206 -254
-329 -485 -379 -115 -24 -455 -3 -480 30 -7 9 -10 232 -10 652 1 592 2 642 19
676 25 52 84 79 189 85 45 3 83 7 85 8 2 2 11 1 20 -1 9 -1 55 -5 102 -8z"/>
<path d="M502 4585 c-9 -15 -13 -113 -4 -119 4 -2 39 -7 77 -10 198 -15 279
-55 304 -150 13 -48 10 -3088 -3 -3146 -40 -185 -59 -233 -117 -292 -43 -44
-99 -61 -194 -61 -89 1 -157 26 -265 98 -45 30 -88 55 -97 55 -22 0 -114 -48
-141 -73 -40 -37 -60 -87 -57 -143 5 -90 57 -157 155 -196 47 -19 74 -22 190
-22 146 0 241 18 355 68 269 120 481 426 552 801 16 82 18 205 18 1440 1 743
5 1370 9 1395 21 125 88 188 227 215 23 5 120 17 144 19 18 1 20 8 19 59 -1
31 -4 60 -7 64 -11 10 -1158 9 -1165 -2z"/>
<path d="M1518 1404 c-60 -18 -121 -78 -141 -139 -19 -56 -15 -146 9 -183 19
-30 73 -82 85 -82 16 0 215 -100 238 -120 48 -41 59 -135 25 -203 -32 -61 -76
-88 -142 -89 -82 0 -145 54 -159 136 -7 42 -16 50 -62 51 l-33 1 4 -46 c10
-100 87 -196 175 -217 181 -45 335 83 327 272 -1 35 -9 76 -18 93 -25 49 -92
98 -195 143 -53 23 -108 51 -124 61 -42 30 -60 73 -52 124 8 53 37 91 87 114
87 39 172 -8 192 -106 6 -28 11 -31 46 -32 38 -2 40 0 40 27 0 67 -44 143
-104 180 -43 27 -134 34 -198 15z"/>
<path d="M4578 1404 c-80 -19 -151 -60 -217 -126 -93 -93 -134 -199 -130 -333
4 -125 43 -218 129 -306 241 -247 665 -138 763 197 33 114 13 268 -49 366 -55
86 -170 173 -263 198 -66 17 -169 19 -233 4z m238 -95 c76 -29 156 -105 196
-187 30 -61 33 -74 33 -162 0 -88 -3 -101 -32 -160 -73 -146 -176 -212 -328
-212 -68 0 -90 4 -145 29 -36 17 -85 50 -109 74 -124 124 -146 334 -50 475 33
48 96 106 141 130 81 44 199 48 294 13z"/>
<path d="M1899 1388 c0 -7 -2 -25 -3 -40 l-2 -28 88 0 88 0 1 -32 c0 -18 0
-198 0 -399 l0 -366 45 0 c33 0 44 4 45 16 0 9 1 188 1 399 l1 382 87 0 c83 0
88 1 92 23 10 59 16 57 -223 57 -168 0 -219 -3 -220 -12z"/>
<path d="M2439 1388 c-5 -78 -2 -626 4 -666 20 -143 112 -215 272 -216 134 0
213 42 260 139 l28 56 -1 332 c0 183 -1 340 -1 350 -1 13 -10 17 -41 17 -22 0
-40 -3 -41 -7 0 -5 -1 -159 -3 -343 -2 -323 -2 -337 -24 -376 -42 -82 -176
-113 -276 -65 -87 43 -92 67 -91 474 l1 317 -43 0 c-27 0 -43 -5 -44 -12z"/>
<path d="M3170 961 l0 -441 193 4 c200 4 227 8 324 58 165 83 240 319 174 546
-30 102 -121 195 -233 237 -68 26 -86 28 -265 33 l-193 4 0 -441z m349 349
c143 -27 237 -116 265 -252 37 -179 -28 -350 -156 -412 -72 -35 -114 -42 -250
-45 l-118 -2 0 360 0 361 104 0 c57 0 126 -4 155 -10z"/>
<path d="M4017 1393 c-2 -5 -3 -201 -3 -438 l1 -430 43 -2 42 -2 0 440 0 439
-39 0 c-22 0 -42 -3 -44 -7z"/>
</g>
</svg>
